# xmcd
#
# Track frame offsets: 
#        150
#        18420
#        45170
#        65805
#        89638
#        108495
#        140395
#        161038
#        193438
#        211628
#
# Disc length: 3131 seconds
#
# Revision: 0
# Processed by: cddbd v1.5.1PL0 Copyright (c) Steve Scherf et al.
# Submitted via: ExactAudioCopy v0.95a5
#
DISCID=8d0c390a
DTITLE=Aubrey Dunham and The Party Machine - Now I'm Singing the Blues
DYEAR=1994
DGENRE=Blues
TTITLE0=I Used To Be a Dog, Baby
TTITLE1=That's Just the Way I Like It
TTITLE2=What a Love To Know
TTITLE3=I'm Glad About My Good Thang
TTITLE4=Shot Gun
TTITLE5=I Used To Be a Dog, Baby (Extended)
TTITLE6=That's Just the Way I Like It (Extended)
TTITLE7=What a Love To Know (Extended)
TTITLE8=I'm Glad About My Good Thang (Extended)
TTITLE9=Shot Gun (Extended)
EXTD=
EXTT0=
EXTT1=
EXTT2=
EXTT3=
EXTT4=
EXTT5=
EXTT6=
EXTT7=
EXTT8=
EXTT9=
PLAYORDER=
